<svg width="70" height="42" viewBox="0 0 70 42" fill="none" xmlns="http://www.w3.org/2000/svg">
<rect x="6" y="3" width="64" height="30" rx="15" fill="#232323"/>
<g filter="url(#filter0_ddd_270_750)">
<rect x="8" y="5" width="26" height="26" rx="13" fill="#434343"/>
</g>
<path d="M54.9824 13.1836C55.3926 13.1836 55.7344 12.8418 55.7344 12.4316V11.0439C55.7344 10.6406 55.3926 10.292 54.9824 10.292C54.5723 10.292 54.2305 10.6406 54.2305 11.0439V12.4316C54.2305 12.8418 54.5723 13.1836 54.9824 13.1836ZM58.4346 14.6328C58.7217 14.9131 59.2002 14.9131 59.4941 14.626L60.4785 13.6416C60.7588 13.3545 60.7588 12.8623 60.4717 12.5752C60.1846 12.2949 59.6992 12.2949 59.4121 12.582L58.4277 13.5732C58.1406 13.8535 58.1475 14.3389 58.4346 14.6328ZM51.5303 14.6328C51.8174 14.3457 51.8174 13.8535 51.5439 13.5732L50.5596 12.582C50.2793 12.3018 49.7871 12.2949 49.5 12.5752C49.2129 12.8623 49.2129 13.3545 49.4863 13.6348L50.4707 14.626C50.7578 14.9131 51.2432 14.9131 51.5303 14.6328ZM54.9824 21.7354C56.9922 21.7354 58.6533 20.0742 58.6533 18.0645C58.6533 16.0479 56.9922 14.3867 54.9824 14.3867C52.9727 14.3867 51.3115 16.0479 51.3115 18.0645C51.3115 20.0742 52.9727 21.7354 54.9824 21.7354ZM54.9824 20.2998C53.7588 20.2998 52.7471 19.2812 52.7471 18.0645C52.7471 16.8408 53.7588 15.8291 54.9824 15.8291C56.1992 15.8291 57.2178 16.8408 57.2178 18.0645C57.2178 19.2812 56.1992 20.2998 54.9824 20.2998ZM59.8633 18.0645C59.8633 18.4746 60.2051 18.8164 60.6152 18.8164H61.9961C62.3994 18.8164 62.748 18.4746 62.748 18.0645C62.748 17.6543 62.3994 17.3125 61.9961 17.3125H60.6152C60.2051 17.3125 59.8633 17.6543 59.8633 18.0645ZM50.1084 18.0645C50.1084 17.6543 49.7598 17.3125 49.3564 17.3125H47.9756C47.5654 17.3125 47.2236 17.6543 47.2236 18.0645C47.2236 18.4746 47.5654 18.8164 47.9756 18.8164H49.3564C49.7598 18.8164 50.1084 18.4746 50.1084 18.0645ZM58.4277 21.5098C58.1406 21.7969 58.1475 22.2754 58.4346 22.5693L59.4258 23.5537C59.7061 23.8408 60.1914 23.8271 60.4854 23.54C60.7656 23.2598 60.7656 22.7744 60.4785 22.4873L59.4873 21.5029C59.2002 21.2227 58.7148 21.2227 58.4277 21.5098ZM51.5439 21.5098C51.25 21.2227 50.7578 21.2227 50.4775 21.5029L49.4932 22.4805C49.2061 22.7676 49.1992 23.2529 49.4795 23.54C49.7666 23.8271 50.2588 23.834 50.5459 23.5469L51.5303 22.5693C51.8174 22.2754 51.8174 21.7969 51.5439 21.5098ZM54.9824 22.9453C54.5723 22.9453 54.2305 23.2871 54.2305 23.6973V25.0781C54.2305 25.4883 54.5723 25.8301 54.9824 25.8301C55.3926 25.8301 55.7344 25.4883 55.7344 25.0781V23.6973C55.7344 23.2871 55.3926 22.9453 54.9824 22.9453Z" fill="#434343"/>
<path d="M24.915 20.1494C21.3877 20.1494 19.1934 18.0371 19.1934 14.6191C19.1934 13.6621 19.3506 12.7871 19.6035 12.3086C19.7266 12.0693 19.7676 11.9053 19.7676 11.7207C19.7676 11.3926 19.5078 11.0713 19.1113 11.0713C19.0088 11.0713 18.8311 11.1055 18.6055 11.1943C16.0078 12.2471 14.2236 14.9268 14.2236 17.8252C14.2236 21.9951 17.2588 25.0371 21.4287 25.0371C24.3887 25.0371 26.8564 23.4375 27.9844 20.8535C28.0869 20.6211 28.1211 20.4229 28.1211 20.293C28.1211 19.9102 27.8408 19.6709 27.5195 19.6709C27.3555 19.6709 27.1982 19.6982 26.9727 19.8008C26.4668 20.0127 25.6807 20.1494 24.915 20.1494ZM15.7207 17.791C15.7207 15.9863 16.6025 14.2158 18.0518 13.1768C17.8945 13.6758 17.8057 14.2227 17.8057 14.8242C17.8057 18.9873 20.3828 21.5098 24.6416 21.5098C25.1475 21.5098 25.585 21.4551 25.9951 21.3115C25.0312 22.7129 23.3086 23.54 21.4629 23.54C18.1475 23.54 15.7207 21.1133 15.7207 17.791Z" fill="#C3B8A1"/>
<defs>
<filter id="filter0_ddd_270_750" x="0" y="0" width="42" height="42" filterUnits="userSpaceOnUse" color-interpolation-filters="sRGB">
<feFlood flood-opacity="0" result="BackgroundImageFix"/>
<feColorMatrix in="SourceAlpha" type="matrix" values="0 0 0 0 0 0 0 0 0 0 0 0 0 0 0 0 0 0 127 0" result="hardAlpha"/>
<feOffset dy="3"/>
<feGaussianBlur stdDeviation="0.5"/>
<feColorMatrix type="matrix" values="0 0 0 0 0 0 0 0 0 0 0 0 0 0 0 0 0 0 0.03 0"/>
<feBlend mode="normal" in2="BackgroundImageFix" result="effect1_dropShadow_270_750"/>
<feColorMatrix in="SourceAlpha" type="matrix" values="0 0 0 0 0 0 0 0 0 0 0 0 0 0 0 0 0 0 127 0" result="hardAlpha"/>
<feOffset dy="1"/>
<feGaussianBlur stdDeviation="0.5"/>
<feColorMatrix type="matrix" values="0 0 0 0 0 0 0 0 0 0 0 0 0 0 0 0 0 0 0.01 0"/>
<feBlend mode="normal" in2="effect1_dropShadow_270_750" result="effect2_dropShadow_270_750"/>
<feColorMatrix in="SourceAlpha" type="matrix" values="0 0 0 0 0 0 0 0 0 0 0 0 0 0 0 0 0 0 127 0" result="hardAlpha"/>
<feOffset dy="3"/>
<feGaussianBlur stdDeviation="4"/>
<feColorMatrix type="matrix" values="0 0 0 0 0 0 0 0 0 0 0 0 0 0 0 0 0 0 0.1 0"/>
<feBlend mode="normal" in2="effect2_dropShadow_270_750" result="effect3_dropShadow_270_750"/>
<feBlend mode="normal" in="SourceGraphic" in2="effect3_dropShadow_270_750" result="shape"/>
</filter>
</defs>
</svg>
