<svg width="70" height="42" viewBox="0 0 70 42" fill="none" xmlns="http://www.w3.org/2000/svg">
<rect y="3" width="64" height="30" rx="15" fill="#F4F1E8"/>
<g filter="url(#filter0_ddd_270_723)">
<rect x="36" y="5" width="26" height="26" rx="13" fill="white"/>
</g>
<path d="M18.915 20.1494C15.3877 20.1494 13.1934 18.0371 13.1934 14.6191C13.1934 13.6621 13.3506 12.7871 13.6035 12.3086C13.7266 12.0693 13.7676 11.9053 13.7676 11.7207C13.7676 11.3926 13.5078 11.0713 13.1113 11.0713C13.0088 11.0713 12.8311 11.1055 12.6055 11.1943C10.0078 12.2471 8.22363 14.9268 8.22363 17.8252C8.22363 21.9951 11.2588 25.0371 15.4287 25.0371C18.3887 25.0371 20.8564 23.4375 21.9844 20.8535C22.0869 20.6211 22.1211 20.4229 22.1211 20.293C22.1211 19.9102 21.8408 19.6709 21.5195 19.6709C21.3555 19.6709 21.1982 19.6982 20.9727 19.8008C20.4668 20.0127 19.6807 20.1494 18.915 20.1494ZM9.7207 17.791C9.7207 15.9863 10.6025 14.2158 12.0518 13.1768C11.8945 13.6758 11.8057 14.2227 11.8057 14.8242C11.8057 18.9873 14.3828 21.5098 18.6416 21.5098C19.1475 21.5098 19.585 21.4551 19.9951 21.3115C19.0312 22.7129 17.3086 23.54 15.4629 23.54C12.1475 23.54 9.7207 21.1133 9.7207 17.791Z" fill="#C3B8A1"/>
<path d="M48.9824 13.1836C49.3926 13.1836 49.7344 12.8418 49.7344 12.4316V11.0439C49.7344 10.6406 49.3926 10.292 48.9824 10.292C48.5723 10.292 48.2305 10.6406 48.2305 11.0439V12.4316C48.2305 12.8418 48.5723 13.1836 48.9824 13.1836ZM52.4346 14.6328C52.7217 14.9131 53.2002 14.9131 53.4941 14.626L54.4785 13.6416C54.7588 13.3545 54.7588 12.8623 54.4717 12.5752C54.1846 12.2949 53.6992 12.2949 53.4121 12.582L52.4277 13.5732C52.1406 13.8535 52.1475 14.3389 52.4346 14.6328ZM45.5303 14.6328C45.8174 14.3457 45.8174 13.8535 45.5439 13.5732L44.5596 12.582C44.2793 12.3018 43.7871 12.2949 43.5 12.5752C43.2129 12.8623 43.2129 13.3545 43.4863 13.6348L44.4707 14.626C44.7578 14.9131 45.2432 14.9131 45.5303 14.6328ZM48.9824 21.7354C50.9922 21.7354 52.6533 20.0742 52.6533 18.0645C52.6533 16.0479 50.9922 14.3867 48.9824 14.3867C46.9727 14.3867 45.3115 16.0479 45.3115 18.0645C45.3115 20.0742 46.9727 21.7354 48.9824 21.7354ZM48.9824 20.2998C47.7588 20.2998 46.7471 19.2812 46.7471 18.0645C46.7471 16.8408 47.7588 15.8291 48.9824 15.8291C50.1992 15.8291 51.2178 16.8408 51.2178 18.0645C51.2178 19.2812 50.1992 20.2998 48.9824 20.2998ZM53.8633 18.0645C53.8633 18.4746 54.2051 18.8164 54.6152 18.8164H55.9961C56.3994 18.8164 56.748 18.4746 56.748 18.0645C56.748 17.6543 56.3994 17.3125 55.9961 17.3125H54.6152C54.2051 17.3125 53.8633 17.6543 53.8633 18.0645ZM44.1084 18.0645C44.1084 17.6543 43.7598 17.3125 43.3564 17.3125H41.9756C41.5654 17.3125 41.2236 17.6543 41.2236 18.0645C41.2236 18.4746 41.5654 18.8164 41.9756 18.8164H43.3564C43.7598 18.8164 44.1084 18.4746 44.1084 18.0645ZM52.4277 21.5098C52.1406 21.7969 52.1475 22.2754 52.4346 22.5693L53.4258 23.5537C53.7061 23.8408 54.1914 23.8271 54.4854 23.54C54.7656 23.2598 54.7656 22.7744 54.4785 22.4873L53.4873 21.5029C53.2002 21.2227 52.7148 21.2227 52.4277 21.5098ZM45.5439 21.5098C45.25 21.2227 44.7578 21.2227 44.4775 21.5029L43.4932 22.4805C43.2061 22.7676 43.1992 23.2529 43.4795 23.54C43.7666 23.8271 44.2588 23.834 44.5459 23.5469L45.5303 22.5693C45.8174 22.2754 45.8174 21.7969 45.5439 21.5098ZM48.9824 22.9453C48.5723 22.9453 48.2305 23.2871 48.2305 23.6973V25.0781C48.2305 25.4883 48.5723 25.8301 48.9824 25.8301C49.3926 25.8301 49.7344 25.4883 49.7344 25.0781V23.6973C49.7344 23.2871 49.3926 22.9453 48.9824 22.9453Z" fill="#1E4A45"/>
<defs>
<filter id="filter0_ddd_270_723" x="28" y="0" width="42" height="42" filterUnits="userSpaceOnUse" color-interpolation-filters="sRGB">
<feFlood flood-opacity="0" result="BackgroundImageFix"/>
<feColorMatrix in="SourceAlpha" type="matrix" values="0 0 0 0 0 0 0 0 0 0 0 0 0 0 0 0 0 0 127 0" result="hardAlpha"/>
<feOffset dy="3"/>
<feGaussianBlur stdDeviation="0.5"/>
<feColorMatrix type="matrix" values="0 0 0 0 0 0 0 0 0 0 0 0 0 0 0 0 0 0 0.03 0"/>
<feBlend mode="normal" in2="BackgroundImageFix" result="effect1_dropShadow_270_723"/>
<feColorMatrix in="SourceAlpha" type="matrix" values="0 0 0 0 0 0 0 0 0 0 0 0 0 0 0 0 0 0 127 0" result="hardAlpha"/>
<feOffset dy="1"/>
<feGaussianBlur stdDeviation="0.5"/>
<feColorMatrix type="matrix" values="0 0 0 0 0 0 0 0 0 0 0 0 0 0 0 0 0 0 0.01 0"/>
<feBlend mode="normal" in2="effect1_dropShadow_270_723" result="effect2_dropShadow_270_723"/>
<feColorMatrix in="SourceAlpha" type="matrix" values="0 0 0 0 0 0 0 0 0 0 0 0 0 0 0 0 0 0 127 0" result="hardAlpha"/>
<feOffset dy="3"/>
<feGaussianBlur stdDeviation="4"/>
<feColorMatrix type="matrix" values="0 0 0 0 0 0 0 0 0 0 0 0 0 0 0 0 0 0 0.1 0"/>
<feBlend mode="normal" in2="effect2_dropShadow_270_723" result="effect3_dropShadow_270_723"/>
<feBlend mode="normal" in="SourceGraphic" in2="effect3_dropShadow_270_723" result="shape"/>
</filter>
</defs>
</svg>
